<?xml version="1.0"?>
<svg xmlns="http://www.w3.org/2000/svg" id="Outline" viewBox="0 0 512 512" width="512" height="512"><path d="M48,432a31.923,31.923,0,0,0,24-10.868,32,32,0,1,0,0-42.264A31.991,31.991,0,1,0,48,432Zm48-40H82.165a16,16,0,1,1,0,16H96a8,8,0,0,0,0-16Zm-48-8a16,16,0,0,1,13.835,8H48a8,8,0,0,0,0,16H61.835A15.992,15.992,0,1,1,48,384Z"/><path d="M120,368a8,8,0,0,0,8-8V336h16.862a55.985,55.985,0,1,0,89.6,64.286h27.068a56.01,56.01,0,0,0,100.932,0h27.068A55.992,55.992,0,1,0,479.138,336H488a8,8,0,0,0,8-8V296a8,8,0,0,0-8-8h-8V128h8a8,8,0,0,0,8-8,40.045,40.045,0,0,0-40-40H328a40.045,40.045,0,0,0-40,40,8,8,0,0,0,8,8h8v48H256V152a8,8,0,0,0-8-8H216a8,8,0,0,0-8,8v24H176V121.888l15.155-30.31A8,8,0,0,0,184,80H120a8,8,0,0,0-7.155,11.578L128,121.888V176h-8a40.045,40.045,0,0,0-40,40v72H72a8,8,0,0,0-6.4,3.2l-48,64A8,8,0,0,0,24,368h96Zm64,48a40,40,0,1,1,32.222-63.714H216a23.9,23.9,0,0,0-15.837,5.989,24,24,0,1,0-.326,35.736,23.908,23.908,0,0,0,15.952,6.27A40.143,40.143,0,0,1,184,416Zm8-40a8,8,0,1,1-8-8A8.009,8.009,0,0,1,192,376Zm24,8.286a8,8,0,0,1,0-16h64a8,8,0,0,1,0,16ZM223.2,336H272.8a55.831,55.831,0,0,0-11.54,16.286H234.737A55.831,55.831,0,0,0,223.2,336ZM312,352a23.909,23.909,0,0,0-16.163,6.275A23.9,23.9,0,0,0,280,352.286h-.222a40.019,40.019,0,0,1,64.444,0H344a23.9,23.9,0,0,0-15.837,5.989A23.909,23.909,0,0,0,312,352Zm8,24a8,8,0,1,1-8-8A8.009,8.009,0,0,1,320,376Zm-8,40a40.146,40.146,0,0,1-31.79-15.719,23.906,23.906,0,0,0,15.953-6.27,23.934,23.934,0,0,0,31.674,0,23.906,23.906,0,0,0,15.953,6.27A40.146,40.146,0,0,1,312,416Zm32-31.714a8,8,0,0,1,0-16h64a8,8,0,0,1,0,16ZM351.2,336H400.8a55.831,55.831,0,0,0-11.54,16.286H362.737A55.831,55.831,0,0,0,351.2,336ZM480,376a40,40,0,0,1-71.79,24.281,23.906,23.906,0,0,0,15.953-6.27,24,24,0,1,0-.326-35.736A23.9,23.9,0,0,0,408,352.286h-.222A40.006,40.006,0,0,1,480,376Zm-48,0a8,8,0,1,1,8,8A8.009,8.009,0,0,1,432,376ZM328,96H456a24.042,24.042,0,0,1,22.629,16H305.371A24.042,24.042,0,0,1,328,96Zm96,128h40v64H320V128h96v88A8,8,0,0,0,424,224Zm8-16V128h32v80ZM224,160h16v16H224ZM171.056,96l-8,16H140.944l-8-16ZM160,128v48H144V128ZM96,216a24.027,24.027,0,0,1,24-24H304v33.376A23.885,23.885,0,0,0,296,224H136a24,24,0,0,0,0,48H296a23.885,23.885,0,0,0,8-1.376V288H96Zm208,32a8.009,8.009,0,0,1-8,8H136a8,8,0,0,1,0-16H296A8.009,8.009,0,0,1,304,248ZM40,352l36-48H480v16H120a8,8,0,0,0-8,8v24Z"/><path d="M392,144H344a8,8,0,0,0-8,8v64a8,8,0,0,0,8,8h48a8,8,0,0,0,8-8V152A8,8,0,0,0,392,144Zm-8,64H352V160h32Z"/></svg>
