<svg width="70" height="25" viewBox="0 0 70 25" fill="none" xmlns="http://www.w3.org/2000/svg">
<path fill-rule="evenodd" clip-rule="evenodd" d="M10.1088 3.91402V7.09432H3.43578V7.94113H10.1088V13.0871H11.3583V0H13.5262V1.86113H67.8331V0H70V18.9278H65.6428L64.0006 22.3014H63.1331C63.1331 20.5816 61.7417 19.1902 60.0219 19.1902C58.3021 19.1902 56.9107 20.5816 56.9107 22.3014H55.8172C55.8172 20.5816 54.4268 19.1902 52.707 19.1902C50.9872 19.1902 49.5958 20.5816 49.5958 22.3014H48.5184L46.8752 18.9278H28.0547L26.4115 22.3014H24.2223C24.2223 20.5816 22.8309 19.1902 21.1111 19.1902C19.3913 19.1902 18 20.5816 18 22.3014H9.75394C9.75394 20.5816 8.36358 19.1902 6.64379 19.1902C4.93653 19.1902 3.55586 20.5594 3.53364 22.2615C2.09031 22.1545 0 21.9471 0 20.3226V8.4349C0 5.76736 7.95534 4.13322 10.1097 3.91372L10.1088 3.91402ZM49.5508 15.7163H64.3148V16.935H49.5508V15.7163ZM31.8064 15.7163H46.5704V16.935H31.8064V15.7163ZM11.6707 16.88H22.9477L25.7914 17.9635H11.6708L11.6707 16.88ZM10.2147 14.5087H14.6173V15.5922H10.2147V14.5087ZM60.0218 19.9776C61.3051 19.9776 62.3462 21.0182 62.3462 22.302C62.3462 23.5864 61.3056 24.627 60.0218 24.627C58.7375 24.627 57.6969 23.5864 57.6969 22.302C57.6969 21.0187 58.7375 19.9776 60.0218 19.9776ZM52.7063 19.9776C53.9897 19.9776 55.0308 21.0182 55.0308 22.302C55.0308 23.5864 53.9902 24.627 52.7063 24.627C51.422 24.627 50.3814 23.5864 50.3814 22.302C50.3814 21.0187 51.422 19.9776 52.7063 19.9776ZM21.11 19.9776C22.3944 19.9776 23.4344 21.0182 23.4344 22.302C23.4344 23.5864 22.3944 24.627 21.11 24.627C19.8257 24.627 18.7851 23.5864 18.7851 22.302C18.7851 21.0187 19.8257 19.9776 21.11 19.9776V19.9776ZM6.64321 19.9776C7.92654 19.9776 8.96762 21.0182 8.96762 22.302C8.96762 23.5864 7.92702 24.627 6.64321 24.627C5.35887 24.627 4.31828 23.5864 4.31828 22.302C4.31828 21.0187 5.35888 19.9776 6.64321 19.9776ZM0.964348 15.8314V9.9865H4.93853C7.17212 9.9865 8.23239 13.0412 4.93853 14.3043L0.964348 15.8314Z" fill="#FF0000"/>
</svg>
