<svg width="70" height="47" viewBox="0 0 70 47" fill="none" xmlns="http://www.w3.org/2000/svg">
<path fill-rule="evenodd" clip-rule="evenodd" d="M56.0099 40.5945C56.9003 40.5945 57.6376 41.3264 57.6376 42.2222C57.6376 43.1131 56.9003 43.8504 56.0099 43.8504C55.1141 43.8504 54.3822 43.1131 54.3822 42.2222C54.3822 41.3264 55.1141 40.5945 56.0099 40.5945ZM63.5007 40.5945C64.3916 40.5945 65.1289 41.3264 65.1289 42.2222C65.1289 43.1131 64.3916 43.8504 63.5007 43.8504C62.6049 43.8504 61.873 43.1131 61.873 42.2222C61.8735 41.3264 62.6054 40.5945 63.5007 40.5945ZM6.49556 40.5945C7.38647 40.5945 8.12375 41.3264 8.12375 42.2222C8.12375 43.1131 7.38647 43.8504 6.49556 43.8504C5.59978 43.8504 4.86738 43.1131 4.86738 42.2222C4.86738 41.3264 5.59978 40.5945 6.49556 40.5945ZM13.9867 40.5945C14.8776 40.5945 15.6154 41.3264 15.6154 42.2222C15.6154 43.1131 14.8781 43.8504 13.9867 43.8504C13.0914 43.8504 12.3595 43.1131 12.3595 42.2222C12.3595 41.3264 13.0909 40.5945 13.9867 40.5945ZM52.9754 39.799C52.4401 40.4653 52.1197 41.3083 52.1197 42.2222C52.1197 44.3612 53.878 46.1131 56.0106 46.1131C57.786 46.1131 59.2957 44.9052 59.7571 43.2707C60.2194 44.9052 61.7317 46.1131 63.5022 46.1131C65.6411 46.1131 67.393 44.3612 67.393 42.2222C67.393 42.007 67.3749 41.7956 67.3407 41.5892H69.1279V35.1459H65.8741V36.9366H4.12343V35.1459H0.869952V41.5892H2.65669C2.62196 41.7951 2.60434 42.0075 2.60434 42.2222C2.60434 44.3612 4.36266 46.1131 6.4947 46.1131C8.27016 46.1131 9.77986 44.9052 10.2408 43.2707C10.7036 44.9052 12.2159 46.1131 13.9858 46.1131C16.1248 46.1131 17.8767 44.3612 17.8767 42.2222C17.8767 41.3083 17.5567 40.4654 17.023 39.799H52.9754ZM8.95437 4.93589H30.3136V2.47308H27.906V0H42.0925V2.47308H39.6844V4.93589H61.0436C72.9855 4.93589 72.9855 34.0891 61.0436 34.0891H8.95562C-2.98521 34.0891 -2.98521 4.93589 8.95562 4.93589H8.95437Z" fill="#FF0000"/>
</svg>
