<svg width="31" height="30" viewBox="0 0 31 30" fill="none" xmlns="http://www.w3.org/2000/svg">
<path d="M22.1189 22.5774V25.7585H27.3127V22.5774H24.1964V24.1679H23.1577V22.5774H22.1189Z" fill="black"/>
<path d="M21.08 18.3359H17.9637V19.9265H16.925V18.3359H15.8862V21.517H21.08V18.3359Z" fill="black"/>
<path d="M3.42114 22.5774V25.7585H8.61493V22.5774H5.49866V24.1679H4.4599V22.5774H3.42114Z" fill="black"/>
<path d="M15.8862 22.5774V25.7585H21.08V22.5774H17.9637V24.1679H16.925V22.5774H15.8862Z" fill="black"/>
<path d="M8.61493 18.3359H5.49866V19.9265H4.4599V18.3359H3.94052C3.65486 18.3359 3.42114 18.5745 3.42114 18.8661V21.517H8.61493V18.3359Z" fill="black"/>
<path d="M27.3127 18.8661C27.3127 18.5745 27.079 18.3359 26.7933 18.3359H24.1964V19.9265H23.1577V18.3359H22.1189V21.517H27.3127V18.8661Z" fill="black"/>
<path d="M0.824215 28.4094C0.824215 28.701 1.05794 28.9396 1.34359 28.9396H6.10888C6.39454 28.1112 7.28398 27.6804 8.09552 27.972C8.53699 28.131 8.88759 28.4889 9.0434 28.9396H21.1708C21.4564 28.1112 22.3459 27.6804 23.1574 27.972C23.5989 28.131 23.9495 28.4889 24.1053 28.9396H29.3899C29.6756 28.9396 29.9093 28.701 29.9093 28.4094V26.8188H0.824097L0.824215 28.4094Z" fill="black"/>
<path d="M8.09564 29.4699C8.09564 29.7627 7.86308 30.0001 7.57626 30.0001C7.28945 30.0001 7.05688 29.7627 7.05688 29.4699C7.05688 29.1771 7.28945 28.9397 7.57626 28.9397C7.86308 28.9397 8.09564 29.1771 8.09564 29.4699Z" fill="black"/>
<path d="M23.1577 29.4699C23.1577 29.7627 22.9251 30.0001 22.6383 30.0001C22.3515 30.0001 22.1189 29.7627 22.1189 29.4699C22.1189 29.1771 22.3515 28.9397 22.6383 28.9397C22.9251 28.9397 23.1577 29.1771 23.1577 29.4699Z" fill="black"/>
<path d="M14.8476 18.3359H11.7313V19.9265H10.6926V18.3359H9.65381V21.517H14.8476V18.3359Z" fill="black"/>
<path d="M14.8476 22.5774H11.7313V24.1679H10.6926V22.5774H9.65381V25.7585H14.8476V22.5774Z" fill="black"/>
<path d="M3.26636 14.3436L10.5406 11.999L10.8534 13.0102L3.57914 15.3548L3.26636 14.3436Z" fill="black"/>
<path d="M0.667603 15.1797L2.22782 14.6768L2.5406 15.6879L0.980387 16.1909L0.667603 15.1797Z" fill="black"/>
<path d="M12.8543 5.32025L16.6068 4.18039L11.6922 0.416095C11.6013 0.349819 11.4909 0.310059 11.3805 0.310059H10.5495C10.2639 0.310059 10.0302 0.54864 10.0302 0.84024C10.0302 0.946277 10.0626 1.04568 10.1146 1.13184L12.8543 5.32025Z" fill="black"/>
<path d="M1.77231 7.20223C1.48665 7.20223 1.25293 7.44081 1.25293 7.73241C1.25293 7.87159 1.30487 8.01076 1.40225 8.11017L4.38218 11.1521C4.51852 11.2913 4.71328 11.3443 4.90156 11.2846L12.6661 8.95843L12.7765 8.18964L13.8023 8.34206L12.9323 14.5516C12.8934 14.8432 13.0881 15.1082 13.3738 15.1546C13.3997 15.1613 13.4257 15.1613 13.4452 15.1613H14.1334C14.3476 15.1613 14.5424 15.0287 14.6203 14.8233L17.9963 5.95621L18.9636 6.34059L18.7299 6.95693L25.0859 5.06155C25.3261 4.98202 25.456 4.72356 25.3845 4.47835C25.3651 4.40545 25.3261 4.33918 25.2742 4.28616C24.5146 3.51076 23.4044 3.22579 22.3787 3.5373L17.6523 4.96879L17.6458 4.97542L17.6393 4.96879L5.71972 8.5939C5.17437 8.75958 4.57709 8.60715 4.17458 8.19626L3.35658 7.35458C3.25919 7.25517 3.12935 7.20215 2.98652 7.20215L1.77231 7.20223Z" fill="black"/>
<path d="M3.78088 2.56529L7.41493 1.39392L7.72772 2.40508L4.09367 3.57645L3.78088 2.56529Z" fill="black"/>
<path d="M1.18579 3.40262L2.74601 2.89966L3.05879 3.91082L1.49858 4.41378L1.18579 3.40262Z" fill="black"/>
<path d="M21.4427 9.04299L25.4236 7.75989L25.7364 8.77105L21.7555 10.0542L21.4427 9.04299Z" fill="black"/>
<path d="M18.8446 9.87857L20.4048 9.37561L20.7176 10.3868L19.1574 10.8897L18.8446 9.87857Z" fill="black"/>
<path d="M28.1941 5.97089L29.2342 5.63574L29.547 6.64691L28.5069 6.98205L28.1941 5.97089Z" fill="black"/>
<path d="M17.8142 15.1749L18.1128 16.1956L29.0263 12.8024L28.3901 14.4261L29.351 14.8237L30.5845 11.6758L27.5071 10.4232L27.1176 11.4041L28.3446 11.9078L17.8142 15.1749Z" fill="black"/>
</svg>
