<svg width="40" height="40" viewBox="0 0 40 40" fill="none" xmlns="http://www.w3.org/2000/svg">
<path d="M39.4038 36.561L30.9485 28.1045C30.5328 27.6903 29.97 27.4578 29.3832 27.4578C28.7964 27.4578 28.2335 27.6903 27.8178 28.1045C25.5898 30.2591 22.7101 31.6136 19.6299 31.9559C16.5497 32.2982 13.443 31.6089 10.7964 29.996C8.14986 28.3831 6.11302 25.9378 5.00498 23.0431C3.89695 20.1483 3.78031 16.9678 4.67335 13.9997C5.56639 11.0315 7.41865 8.44354 9.93995 6.64109C12.4613 4.83865 15.5092 3.9236 18.6062 4.0393C21.7032 4.15499 24.6743 5.2949 27.0542 7.28043C29.434 9.26597 31.0881 11.985 31.7572 15.0114C32.2367 17.2071 32.1873 19.4853 31.6131 21.6581C31.5453 21.9126 31.5283 22.1779 31.563 22.439C31.5977 22.7001 31.6835 22.9518 31.8155 23.1797C31.9474 23.4076 32.123 23.6073 32.3321 23.7674C32.5413 23.9274 32.7799 24.0447 33.0343 24.1125C33.5482 24.2495 34.0955 24.1767 34.5557 23.9102C35.016 23.6436 35.3515 23.2051 35.4885 22.6911C36.5916 18.5444 36.1816 14.1402 34.332 10.2685C32.4823 6.39674 29.3141 3.31065 25.3953 1.56367C21.4766 -0.183317 17.0638 -0.47691 12.9482 0.735536C8.8326 1.94798 5.28351 4.58716 2.93739 8.17976C0.591272 11.7724 -0.39841 16.0834 0.14583 20.3397C0.690069 24.596 2.73263 28.5192 5.90721 31.4057C9.08179 34.2922 13.1807 35.9532 17.4689 36.0908C21.7571 36.2284 25.9541 34.8336 29.3071 32.1566L36.5694 39.4118C36.7553 39.5983 36.9762 39.7462 37.2194 39.8471C37.4626 39.948 37.7233 40 37.9866 40C38.2499 40 38.5106 39.948 38.7538 39.8471C38.997 39.7462 39.2179 39.5983 39.4038 39.4118C39.5927 39.2256 39.7426 39.0037 39.845 38.759C39.9473 38.5143 40 38.2517 40 37.9864C40 37.7212 39.9473 37.4586 39.845 37.2139C39.7426 36.9692 39.5927 36.7472 39.4038 36.561Z" fill="white"/>
<path d="M24.0784 24.0605C23.7586 23.7634 23.3491 23.5809 22.9143 23.5417C22.4795 23.5026 22.044 23.609 21.6763 23.8443C20.6382 24.4849 19.4474 24.8355 18.2279 24.8594C17.0084 24.8833 15.8047 24.5798 14.7423 23.9805C14.3821 23.7703 13.9636 23.6824 13.5493 23.73C13.1351 23.7777 12.7474 23.9583 12.4443 24.2447L12.3242 24.3568C12.1092 24.5617 11.9443 24.8135 11.8425 25.0925C11.7407 25.3716 11.7047 25.6704 11.7372 25.9656C11.7697 26.2609 11.87 26.5446 12.0301 26.7948C12.1903 27.0449 12.406 27.2548 12.6605 27.4079C14.3723 28.3949 16.3211 28.8957 18.2966 28.8562C20.2721 28.8167 22.1993 28.2384 23.8702 27.1837C24.1143 27.0285 24.3205 26.8205 24.4734 26.5749C24.6263 26.3294 24.722 26.0526 24.7536 25.765C24.7851 25.4775 24.7516 25.1865 24.6555 24.9136C24.5594 24.6408 24.4032 24.393 24.1985 24.1887L24.0784 24.0605Z" fill="#00C569"/>
</svg>
