<svg width="50" height="51" viewBox="0 0 50 51" fill="none" xmlns="http://www.w3.org/2000/svg">
<path d="M49.3716 47.5269L38.3073 36.5174C42.0088 32.2773 43.9086 26.7765 43.6061 21.1738C43.3039 15.5706 40.8235 10.3022 36.687 6.47896C32.5502 2.65525 27.0808 0.574398 21.4297 0.674339C15.7786 0.774317 10.3871 3.04742 6.39055 7.01514C2.39434 10.9828 0.104233 16.3355 0.00346793 21.9453C-0.0972401 27.5555 1.99884 32.9857 5.85047 37.092C9.70172 41.1989 15.0083 43.6613 20.6526 43.9613C26.2964 44.2616 31.8378 42.3756 36.1082 38.7009L47.1725 49.7104C47.4459 50.0718 47.8638 50.2981 48.3179 50.33C48.772 50.3622 49.218 50.1971 49.54 49.8774C49.8621 49.5576 50.0285 49.1149 49.996 48.6641C49.9639 48.2133 49.7359 47.7983 49.3718 47.527L49.3716 47.5269ZM35.0407 35.4833C31.5421 38.9541 26.7985 40.9034 21.8525 40.9024C16.9064 40.9013 12.1632 38.95 8.66716 35.4779C5.17004 32.0054 3.20565 27.2964 3.20565 22.3862C3.20565 17.4759 5.17004 12.7672 8.66716 9.29455C12.1639 5.82204 16.9068 3.87075 21.8525 3.86972C26.7983 3.86899 31.5418 5.81801 35.0407 9.28912C37.3769 11.5769 39.0591 14.4393 39.9156 17.5841C40.7722 20.7289 40.7722 24.0428 39.9156 27.1872C39.0591 30.332 37.3769 33.1947 35.0407 35.4825V35.4833Z" fill="white"/>
<path d="M28.0654 21.4213H23.4V16.7897C23.4642 16.3422 23.3299 15.8892 23.0314 15.5475C22.733 15.2062 22.3003 15.0103 21.8451 15.0103C21.3899 15.0103 20.9568 15.2062 20.6584 15.5475C20.3604 15.8892 20.2257 16.3422 20.2899 16.7897V21.4213H15.6296C15.1766 21.3517 14.7158 21.4824 14.368 21.7787C14.0198 22.075 13.8198 22.5075 13.8198 22.9623C13.8198 23.4175 14.0198 23.8497 14.368 24.1459C14.7159 24.4422 15.1766 24.573 15.6296 24.5037H20.2899V29.1353C20.3618 29.6348 20.6728 30.0695 21.1247 30.301C21.5766 30.5325 22.1134 30.5325 22.5656 30.301C23.0175 30.0695 23.3285 29.6348 23.4001 29.1353V24.5037H28.0655C28.5185 24.573 28.9796 24.4422 29.3274 24.1459C29.6753 23.8497 29.8756 23.4175 29.8756 22.9623C29.8756 22.5075 29.6753 22.075 29.3274 21.7787C28.9796 21.4824 28.5184 21.3517 28.0655 21.4213H28.0654Z" fill="white"/>
</svg>
