<svg width="60" height="76" viewBox="0 0 60 76" fill="none" xmlns="http://www.w3.org/2000/svg">
<path d="M26.9967 25.0219C27.8538 25.6016 28.8874 25.9387 29.9989 25.9387C30.3696 25.9387 30.7318 25.9017 31.0809 25.8294C33.5278 25.3282 35.3689 23.1638 35.3689 20.5693C35.3689 19.0864 34.7675 17.7448 33.7966 16.7722C32.8257 15.8013 31.4824 15.2 29.9995 15.2C27.4051 15.2 25.2395 17.041 24.7395 19.4879C24.6683 19.837 24.6301 20.1997 24.6301 20.5699C24.6301 21.6815 24.9678 22.715 25.547 23.5721C25.9325 24.1427 26.4256 24.6358 26.9968 25.0219L26.9967 25.0219Z" fill="#00B050"/>
<path d="M60 20.5684C59.9908 12.3779 55.3344 5.12593 48.2265 0.713171L48.239 0.696088L47.3831 0.107267C46.8991 -0.129057 46.3461 0.0383628 46.0158 0.487666L43.9528 3.28256C43.7626 3.53938 43.6361 3.8241 43.6971 4.13731C43.7421 4.37477 43.803 4.53366 43.9687 4.69481L44.6737 5.18909L44.6908 5.1925C50.53 8.56075 54.4067 14.1733 54.4159 20.5694C54.4057 26.9655 50.5288 32.5763 44.6908 35.9463L44.6737 35.9485L43.9687 36.4428C43.8019 36.604 43.7404 36.7629 43.6971 37.0003C43.6362 37.3146 43.7626 37.5983 43.9528 37.8562L46.0158 40.6511C46.3478 41.0993 46.9008 41.2661 47.3831 41.0315L48.239 40.4427L48.2265 40.4256C55.3344 36.0134 59.9908 28.7614 60 20.5704V20.5684Z" fill="#00B050"/>
<path d="M37.888 27.9449C37.8533 27.9631 37.8271 27.9819 37.8049 28.0024L37.2093 28.4192C37.0492 28.5747 36.9906 28.7267 36.9467 28.9551C36.8881 29.2569 37.0099 29.5308 37.1922 29.7774L39.1784 32.4663C39.4973 32.8985 40.0298 33.0585 40.495 32.8313L41.3173 32.2658L41.3161 32.2647C45.4909 29.6857 48.2327 25.4068 48.2384 20.5688V20.5665C48.2327 15.7283 45.4907 11.4495 41.3161 8.87055L41.3173 8.86941L40.495 8.30394C40.0309 8.07673 39.4973 8.23845 39.1784 8.66896L37.1922 11.3579C37.0099 11.6044 36.8881 11.8784 36.9467 12.1802C36.9906 12.4085 37.0481 12.5617 37.2093 12.716L37.8049 13.1329C37.8265 13.1534 37.8533 13.1733 37.888 13.1904C40.8418 14.7524 42.8024 17.4732 42.8081 20.5654C42.8013 23.6609 40.8401 26.3829 37.888 27.9449V27.9449Z" fill="#00B050"/>
<path d="M16.0313 36.4423L15.3263 35.948L15.3092 35.9458C9.46999 32.5764 5.59326 26.965 5.58407 20.5689C5.59432 14.1728 9.47115 8.56084 15.3092 5.19201L15.3263 5.18859L16.0313 4.69431C16.1981 4.53315 16.2596 4.37428 16.304 4.13682C16.365 3.82249 16.2386 3.53888 16.0484 3.28206L13.9841 0.487168C13.6521 0.0378743 13.0992 -0.128986 12.6169 0.10677L11.761 0.694439L11.7735 0.711523C4.66555 5.1237 0.00918414 12.3745 0 20.5668V20.569C0.00911125 28.7596 4.66555 36.0101 11.7735 40.4243L11.761 40.4414L12.6169 41.0302C13.0997 41.2654 13.6538 41.098 13.9841 40.6498L16.0484 37.8549C16.2386 37.5981 16.365 37.3134 16.304 37.0001C16.2579 36.7644 16.197 36.6044 16.0313 36.4438V36.4423Z" fill="#00B050"/>
<path d="M11.76 20.5684V20.5707C11.7657 25.4088 14.5077 29.6864 18.6822 32.2666L18.6811 32.2677L19.5034 32.8332C19.9686 33.0604 20.5011 32.8987 20.8199 32.467L22.8062 29.7781C22.9884 29.5315 23.1103 29.2576 23.0516 28.9558C23.0078 28.7275 22.9503 28.5743 22.7891 28.42L22.1935 28.0031C22.1718 27.9826 22.1451 27.9627 22.1103 27.9456C19.1565 26.3848 17.1959 23.6627 17.1903 20.5706C17.196 17.4785 19.1565 14.7565 22.1103 13.1956C22.1439 13.1774 22.1713 13.1586 22.1935 13.1381L22.7891 12.7212C22.9491 12.5669 23.0078 12.4137 23.0516 12.1854C23.1103 11.8836 22.9884 11.6097 22.8062 11.3631L20.8199 8.67418C20.5011 8.24197 19.9686 8.08194 19.5034 8.30916L18.6811 8.87462L18.6822 8.87576C14.5069 11.4514 11.7657 15.7298 11.76 20.5683V20.5684Z" fill="#00B050"/>
<path d="M32.4258 33.1376C32.4133 33.0915 32.3899 33.051 32.3751 33.006C32.374 33.0015 32.3717 32.9969 32.3694 32.9912C32.2071 32.5192 31.9213 32.1228 31.5528 31.8301C31.5369 31.8176 31.5192 31.8073 31.5022 31.7942C31.3905 31.71 31.2727 31.6331 31.1485 31.567C31.1149 31.5499 31.0785 31.5357 31.0426 31.5198C30.9287 31.4668 30.812 31.4195 30.6901 31.3837C30.6742 31.3791 30.6599 31.3711 30.644 31.3666C30.6058 31.3563 30.5694 31.3563 30.5312 31.3472C30.4265 31.3244 30.3217 31.3034 30.2135 31.2931C30.1337 31.2852 30.0557 31.2852 29.976 31.2852C29.8963 31.2852 29.8194 31.2852 29.7397 31.2931C29.6315 31.3034 29.5267 31.3233 29.4219 31.3472C29.3838 31.3552 29.3473 31.3563 29.3092 31.3666C29.2932 31.3711 29.279 31.3791 29.2631 31.3837C29.1412 31.4195 29.0245 31.4668 28.9106 31.5198C28.8758 31.5357 28.8394 31.5499 28.8058 31.567C28.6816 31.6314 28.5649 31.7088 28.4533 31.7931C28.4373 31.8056 28.4185 31.8159 28.4026 31.829C28.0342 32.1205 27.7494 32.5169 27.5871 32.989C27.5849 32.9947 27.5826 32.9992 27.5814 33.0049C27.5666 33.0499 27.5433 33.0892 27.5308 33.1353C27.5216 33.1666 16.8763 71.9638 16.8786 71.9638C16.595 73.269 17.3752 74.5822 18.6781 74.9415C19.981 75.3008 21.3243 74.5719 21.7491 73.3054C21.7491 73.3054 23.023 68.6736 24.6892 62.6094C29.1988 66.4316 38.7154 74.4956 38.7154 74.4944C39.2445 74.909 39.8925 75.081 40.5206 75.0206C40.7706 75.0286 41.0229 75.0115 41.2763 74.942C42.5792 74.5827 43.3594 73.2695 43.077 71.9643C43.0804 71.966 32.4339 33.1679 32.426 33.1373L32.4258 33.1376ZM29.9777 43.3541C30.5825 45.5579 31.2601 48.0197 31.9577 50.5634C30.7226 51.204 28.9487 52.1231 27.3406 52.9562C28.2682 49.5806 29.184 46.2458 29.9777 43.3541ZM33.3301 55.5575C34.3232 59.1713 35.293 62.7019 36.1038 65.6546C33.1342 63.1353 29.7413 60.2573 27.6611 58.4925C29.6548 57.4595 31.7526 56.373 33.3301 55.5575Z" fill="#00B050"/>
</svg>
