<svg width="60" height="60" viewBox="0 0 60 60" fill="none" xmlns="http://www.w3.org/2000/svg">
<path d="M18.5161 41.1836L32.8451 33.3143L26.4428 26.9583L18.5161 41.1836Z" fill="#00B050"/>
<path d="M33.5566 32.6067L41.4833 18.3813L27.1543 26.2507L33.5566 32.6067Z" fill="#00B050"/>
<path d="M30 0C13.4556 0 0 13.3575 0 29.7826C0 46.2077 13.455 59.5652 30 59.5652C46.545 59.5652 60 46.2077 60 29.7826C60 13.3575 46.545 0 30 0ZM48.1297 47.7805C48.1094 47.8007 48.0687 47.8209 48.0484 47.8411C43.4142 52.4013 37.0324 55.226 30.0202 55.226C23.008 55.226 16.6261 52.4013 11.9919 47.8411C11.9513 47.8209 11.9309 47.8007 11.9106 47.7805C11.8903 47.7604 11.87 47.72 11.8496 47.6998C7.25617 43.0993 4.41078 36.7636 4.41078 29.8022C4.41078 22.8409 7.25617 16.5052 11.8496 11.9046C11.87 11.8643 11.8903 11.8441 11.9106 11.8239C11.9309 11.8038 11.9716 11.7836 11.9919 11.7634C16.6261 7.20322 23.008 4.37845 30.0202 4.37845C37.0526 4.37845 43.4142 7.20322 48.0484 11.7634C48.0891 11.7836 48.1094 11.8038 48.1297 11.8239C48.15 11.8441 48.1704 11.8845 48.1907 11.9046C52.7841 16.5052 55.6295 22.8409 55.6295 29.8022C55.6295 36.7636 52.7841 43.0993 48.1907 47.6998C48.1704 47.72 48.15 47.7402 48.1297 47.7805Z" fill="#00B050"/>
<path d="M50.8737 29.2789H54.6135C54.4916 22.9229 51.89 17.1522 47.7641 12.8744L46.6259 14.0044C46.5243 14.1053 46.4023 14.1456 46.2601 14.1456C46.1178 14.1456 45.9958 14.1053 45.8942 14.0044C45.6909 13.8026 45.6909 13.4797 45.8942 13.2982L47.0324 12.1682C42.7234 8.05206 36.9106 5.48943 30.5082 5.36841V9.0811C30.5082 9.36357 30.2847 9.58554 30.0001 9.58554C29.7156 9.58554 29.492 9.36359 29.492 9.0811V5.36841C23.0897 5.48947 17.2768 8.07217 12.9678 12.1682L14.106 13.2982C14.3093 13.4999 14.3093 13.8228 14.106 14.0044C14.0044 14.1053 13.8825 14.1456 13.7402 14.1456C13.5979 14.1456 13.476 14.1053 13.3743 14.0044L12.2361 12.8744C8.08995 17.1522 5.50862 22.9229 5.38672 29.2789H9.1265C9.41104 29.2789 9.63462 29.5008 9.63462 29.7833C9.63462 30.0658 9.41105 30.2878 9.1265 30.2878H5.38672C5.50867 36.6437 8.11021 42.4145 12.2361 46.6922L13.3743 45.5623C13.5776 45.3605 13.9028 45.3605 14.0857 45.5623C14.289 45.7641 14.289 46.0869 14.0857 46.2685L12.9475 47.3984C17.2565 51.5146 23.0693 54.0772 29.4716 54.1982V50.4855C29.4716 50.2031 29.6952 49.9811 29.9798 49.9811C30.2643 49.9811 30.4879 50.2031 30.4879 50.4855V54.1982C36.8902 54.0772 42.7031 51.4945 47.012 47.3984L45.8739 46.2685C45.6706 46.0667 45.6706 45.7439 45.8739 45.5623C46.0771 45.3605 46.4023 45.3605 46.5852 45.5623L47.7234 46.6922C51.8696 42.4145 54.4509 36.6437 54.5728 30.2878H50.833C50.5485 30.2878 50.3249 30.0658 50.3249 29.7833C50.3249 29.5008 50.5892 29.2789 50.8737 29.2789H50.8737ZM43.2316 17.3337L34.126 33.6777C34.126 33.6777 34.126 33.6978 34.1057 33.6978C34.0854 33.718 34.0854 33.7382 34.0651 33.7382L33.9838 33.8189C33.9634 33.8391 33.9431 33.8391 33.9431 33.8593L33.9228 33.8794L17.4596 42.919C17.3783 42.9594 17.297 42.9796 17.2157 42.9796C17.0938 42.9796 16.9515 42.919 16.8498 42.8383C16.6872 42.6769 16.6466 42.4348 16.7685 42.233L25.8741 25.889C25.8741 25.889 25.8741 25.8689 25.8944 25.8689C25.9147 25.8487 25.9147 25.8285 25.9351 25.8285L26.0164 25.7478C26.0367 25.7276 26.057 25.7276 26.057 25.7074L26.0773 25.6873L42.5405 16.6477C42.7438 16.5468 42.9877 16.567 43.1503 16.7284C43.3129 16.8898 43.3332 17.1319 43.2316 17.3337H43.2316Z" fill="#00B050"/>
</svg>
