<svg width="31" height="60" viewBox="0 0 31 60" fill="none" xmlns="http://www.w3.org/2000/svg">
<path d="M25.8368 43.4663C25.6573 43.092 25.119 42.3649 22.3283 39.6783C21.5357 38.913 20.7501 38.1751 20.1826 37.6462L19.8532 37.3408L22.0467 31.622H25.4544C25.9633 31.622 26.4049 31.2638 26.502 30.7694L30.3432 8.49638C30.3524 8.44528 30.3562 8.38919 30.3562 8.32894C30.3562 8.05804 30.2537 7.80169 30.067 7.60557L23.1087 0.301643C22.9199 0.112599 22.6512 0 22.3654 0H7.99008C7.70549 0 7.43595 0.112599 7.2338 0.314524L0.290451 7.60186C0.102534 7.80005 0 8.05807 0 8.32896C0 8.38879 0.00460329 8.44531 0.0138113 8.50347L3.85797 30.786C3.95214 31.2643 4.39243 31.6224 4.90177 31.6224H8.07125L10.4573 40.1716C10.5121 40.3515 10.6239 40.5222 10.7796 40.6569L16.1446 45.4832C17.3743 46.7409 17.3596 48.7208 16.1454 49.9277C14.9497 51.1165 12.8559 51.1093 11.6648 49.9314L5.73047 44.0381C5.55009 43.8744 5.29185 43.7726 5.02275 43.7726C4.53307 43.7726 4.10826 44.1034 3.98816 44.5708C3.63827 45.7034 3.46542 46.8448 3.46542 47.999C3.46542 54.3776 8.69235 59.5652 15.1171 59.5652C21.5415 59.5652 26.7667 54.3774 26.7667 47.999C26.7671 46.497 26.655 44.9081 25.8368 43.4668L25.8368 43.4663ZM24.5553 29.5037H18.958L25.7108 22.7981L24.5553 29.5037ZM2.20649 8.67302L8.44838 2.12195H14.0286L2.97041 13.0936L2.20649 8.67302ZM3.41141 15.6533L17.0463 2.12249H21.9033L22.8571 3.11509L4.40722 21.4292L3.41141 15.6533ZM5.84515 29.7616L4.84905 23.9867L24.3222 4.65686L27.6344 8.13407L5.84515 29.7616ZM27.7429 11.0221L26.3349 19.184L15.9392 29.5036H9.12605L27.7429 11.0221ZM15.1172 57.4465C10.0903 57.4465 5.91725 53.5455 5.61672 48.565L5.51167 46.8128L10.1577 51.4319C12.157 53.4042 15.65 53.4096 17.6522 51.4248C19.7176 49.3744 19.7176 46.0372 17.6522 43.9829L12.4202 39.2712L10.2861 31.622H19.7619L17.5868 37.2972C17.5558 37.3915 17.5353 37.5062 17.5353 37.6242C17.5353 37.9188 17.6596 38.1988 17.8722 38.3966C18.7913 39.2654 23.3578 43.6043 23.8672 44.3169L23.9551 44.4623C24.5188 45.4292 24.636 46.531 24.636 47.9977C24.636 53.2092 20.3662 57.4464 15.1171 57.4464L15.1172 57.4465Z" fill="#00B050"/>
</svg>
