<svg width="68" height="60" viewBox="0 0 68 60" fill="none" xmlns="http://www.w3.org/2000/svg">
<path d="M7.15071 23.269C13.9256 19.7798 21.4305 17.5068 21.4305 17.5068C21.4305 17.5068 29.0271 19.8082 35.8334 23.3333L35.8339 7.98411H39.0475V5.27985L22.4497 5.28032V0H20.4116V5.27984L3.47485 5.28031V7.98457H7.15058L7.15071 23.269ZM27.0029 9.46564H33.4797V15.2746H27.0029V9.46564ZM18.1754 9.46564H24.6513V15.2746H18.1754V9.46564ZM9.34761 9.46564H15.8244V15.2746H9.34761V9.46564Z" fill="#00B050"/>
<path d="M22.3695 20.0371V59.5652L37.1029 49.8518C37.1029 49.8518 42.9343 36.1766 42.859 33.5982C42.6756 27.1073 26.4771 21.3854 22.3691 20.0381L22.3695 20.0371Z" fill="#00B050"/>
<path d="M20.4578 20.0479C16.2987 21.4144 0.184932 27.1237 0.00081124 33.5972C-0.0749211 36.1757 5.17449 48.1755 6.21191 49.8508L20.4575 59.5439L20.4578 20.0479Z" fill="#00B050"/>
<path d="M53.6164 5.91149V15.4093H61.254V5.95265C64.7263 7.36411 67.1598 10.6127 67.1598 14.3984C67.1598 18.2948 64.5829 21.6161 60.9487 22.9576L60.9482 52.8114C60.9482 54.8214 59.3073 56.4509 57.2826 56.4509C55.2579 56.4509 53.617 54.8214 53.617 52.8114L53.6175 22.8874C50.0899 21.5005 47.6094 18.2227 47.6094 14.3987C47.6084 10.5756 50.0876 7.29923 53.6166 5.91089L53.6164 5.91149Z" fill="#00B050"/>
</svg>
