<svg width="70" height="60" viewBox="0 0 70 60" fill="none" xmlns="http://www.w3.org/2000/svg">
<path d="M3.80228 8.67656e-05C3.37979 0.00547662 3.04565 0.34797 3.05158 0.762987V6.36006H4.56628V0.762987C4.5717 0.339152 4.22473 -0.00628538 3.80224 8.67656e-05H3.80228ZM39.9867 6.34977C39.5681 6.35516 39.2335 6.69717 39.2394 7.11267L39.2315 15.1866C39.2315 15.6021 39.5711 15.9392 39.9901 15.9387C40.3267 15.9387 40.5957 16.2019 40.5957 16.5473C40.5957 16.8927 40.3297 17.1559 39.9832 17.1559C39.81 17.1559 39.6629 17.0892 39.5513 16.9785C38.8377 16.2509 37.7474 17.3318 38.4788 18.0413C38.8628 18.423 39.3998 18.6611 39.9832 18.6611C41.1495 18.6611 42.1109 17.7051 42.1109 16.5472C42.1109 15.656 41.5394 14.896 40.7477 14.5883L40.7532 7.86621H53.8343V32.4516C52.5268 32.7892 51.5521 33.972 51.5521 35.3714V43.2381H57.6323V35.3714C57.6323 33.9715 56.658 32.7887 55.3501 32.4511V7.8657H61.909C62.3275 7.8657 62.6671 7.5286 62.6671 7.11309C62.6671 6.69758 62.3275 6.36047 61.909 6.36047C54.6798 6.36047 42.5975 6.34969 39.9858 6.34969L39.9867 6.34977ZM1.42436 7.86579C0.646008 7.86579 0.000378845 8.51551 0.000378845 9.40138V11.4857H7.61505V7.86529C5.52583 7.86529 3.50763 7.88146 1.42385 7.86529L1.42436 7.86579ZM0.000378845 12.991V14.2071H11.2684V12.991H0.000378845ZM0.000378845 15.7118V20.5578H2.59348V15.7118H0.000378845ZM4.10931 15.7118V20.5578H7.15905V15.7118H4.10931ZM8.67476 15.7118V20.5578H11.2679V15.7118H8.67476ZM0 22.0625V28.2687H8.3446C9.59873 28.2687 10.6101 28.7361 11.1367 29.5804C11.6633 30.4246 11.7497 31.456 11.7497 32.6502C11.7492 33.0652 11.4101 33.4013 10.9926 33.4018H5.0127e-05V35.5264H8.34465C9.59878 35.5264 10.6101 35.9939 11.1368 36.8381C11.6634 37.6824 11.7498 38.7122 11.7498 39.9069C11.7503 40.3224 11.4112 40.66 10.9926 40.66H0.000101218V47.7731H14.9209V25.2109C14.9209 23.4533 13.5197 22.0623 11.7518 22.0623L0 22.0625ZM33.4401 22.0625V26.0009H44.708V22.0625H33.4401ZM33.4401 27.5058V31.4438H44.708V27.5058H33.4401ZM0 29.7739V31.897H10.1076C10.0483 31.3071 10.0153 30.6383 9.84944 30.3727C9.60168 29.9754 9.28925 29.774 8.3446 29.774L0 29.7739ZM62.243 30.5368C61.667 30.5368 61.3018 31.1493 61.5787 31.6505L62.3802 33.1033L61.5787 34.5561C61.3018 35.0574 61.667 35.6699 62.243 35.6699H66.9629V43.2377H68.4791V31.2884C68.4791 30.8734 68.1395 30.5368 67.7215 30.5368L62.243 30.5368ZM20.6584 32.9489V36.887H31.9259V32.9489H20.6584ZM33.4401 32.9489V36.887H44.708V32.9489H33.4401ZM0 37.0305V39.1551H10.1076C10.0483 38.5647 10.0153 37.8964 9.84944 37.6303C9.60168 37.233 9.28925 37.0306 8.3446 37.0306L0 37.0305ZM20.6584 38.3912V42.3307H31.9259V38.3912H20.6584ZM33.4401 38.3912V42.3307H44.708V38.3912H33.4401ZM20.6584 43.834V47.7735H31.9259V43.834H20.6584ZM33.4401 43.834V47.7735H44.708V43.834H33.4401ZM50.8866 44.7415L49.2958 48.6942C49.0747 49.0739 48.9582 49.2773 48.4188 49.2773H0.353606L2.4547 54.5774H45.294L45.9435 52.964C46.1429 52.621 46.1543 52.3093 46.8502 52.3093H66.2943L69.3397 44.7415L50.8866 44.7415ZM60.5278 45.9586C61.9464 45.9586 63.1111 47.1169 63.1111 48.5251C63.1111 49.9334 61.9463 51.0917 60.5278 51.0917C59.1094 51.0917 57.9436 49.9333 57.9436 48.5251C57.9436 47.1169 59.1094 45.9586 60.5278 45.9586ZM60.5278 47.4633C59.9291 47.4633 59.4593 47.9293 59.4593 48.5251C59.4593 49.1209 59.9291 49.5864 60.5278 49.5864C61.1265 49.5864 61.5964 49.1209 61.5964 48.5251C61.5964 47.9293 61.1265 47.4633 60.5278 47.4633ZM47.2357 53.8125L46.5605 55.4917C46.3354 55.8788 46.2254 56.0973 45.681 56.0807H3.05141C3.48624 57.1773 3.71921 58.0529 4.35093 59.0127C4.67965 59.3788 5.02168 59.5654 5.56114 59.5654H62.2612C62.7907 59.5654 63.0686 59.3905 63.3889 59.0093C63.7098 58.6276 63.9975 58.019 64.2689 57.3444L65.6909 53.8126L47.2357 53.8125Z" fill="#00B050"/>
</svg>
