<svg width="60" height="60" viewBox="0 0 60 60" fill="none" xmlns="http://www.w3.org/2000/svg">
<path d="M30 0C13.4311 0 0 13.3338 0 29.7827C0 46.2316 13.4311 59.5654 30 59.5654C46.5689 59.5654 60 46.2316 60 29.7827C60 13.3338 46.5689 0 30 0ZM29.2188 8.77539H30.7588C32.7847 8.91686 34.2147 10.2978 34.2411 12.1879V16.1989L40.223 17.1516C40.8303 17.253 41.3375 17.7852 41.4058 18.3926L42.0979 24.4866L44.1735 26.5255C44.4386 26.7857 44.5945 27.1527 44.5975 27.5227V39.7106C44.593 40.3155 44.155 40.8923 43.5706 41.0624C39.3928 42.3139 34.7746 41.8905 29.9099 39.6443C25.467 41.8841 20.8454 42.2838 16.3602 41.0624C15.7672 40.9002 15.3178 40.321 15.3108 39.7106V27.5227C15.3138 27.1527 15.4698 26.7857 15.7348 26.5255L17.7887 24.4866L18.5251 18.3926C18.5933 17.7852 19.101 17.253 19.7079 17.1516L25.7571 16.1766V12.1433C25.9156 10.1529 27.355 8.7996 29.217 8.77478L29.2188 8.77539ZM29.2188 11.6116C28.6896 11.6427 28.7539 11.8624 28.6159 12.1433V15.7335C29.0254 15.6647 29.4674 15.5964 29.866 15.5341C30.3667 15.5618 30.8744 15.6726 31.3836 15.7557V12.1879C31.3073 11.6665 31.114 11.7081 30.7588 11.6116L29.2188 11.6116ZM28.5267 18.6142L21.2273 19.7667L20.5577 25.3066C20.5243 25.5554 20.4231 25.7954 20.2677 25.9937L28.5266 27.8111L28.5267 18.6142ZM31.3836 18.6142V27.8328L39.5976 26.0154C39.4267 25.8077 39.3166 25.5505 39.2852 25.2844L38.6823 19.7667L31.3836 18.6142ZM18.1693 28.4312V38.5362C21.655 39.2707 25.0596 38.9121 28.5263 37.1843V30.7134L18.1693 28.4312ZM41.7407 28.453L31.3837 30.7352V37.2277C35.2147 38.9411 38.6033 39.2395 41.7407 38.535V28.453ZM13.6604 41.3943C17.6403 42.9746 19.9686 43.6988 22.0084 43.6988C24.0482 43.6988 26.0397 43.0112 29.4194 41.4382C29.7861 41.2641 30.2291 41.2557 30.6022 41.4165C34.1607 42.9923 36.2479 43.6987 38.2807 43.6987C40.3135 43.6987 42.5406 42.9943 46.3164 41.4165C47.006 41.1261 47.8993 41.4852 48.1918 42.1698C48.4843 42.8544 48.1225 43.7412 47.4325 44.0311C43.574 45.6436 40.9627 46.5349 38.2807 46.5349C35.7686 46.5349 33.3316 45.6802 30.0442 44.2527C26.9058 45.6832 24.5256 46.5349 22.0085 46.5349C19.321 46.5349 16.6448 45.6416 12.5886 44.0311C11.9802 43.812 11.5722 43.1417 11.6599 42.5051C12.1422 41.1192 12.8561 41.1192 13.6599 41.3941L13.6604 41.3943ZM13.6604 45.6492C17.6403 47.2295 19.9686 47.9537 22.0084 47.9537C24.0482 47.9537 26.0397 47.2662 29.4194 45.6932C29.7861 45.519 30.2291 45.5106 30.6022 45.6714C34.1607 47.2473 36.2479 47.9536 38.2807 47.9536C40.3135 47.9536 42.5406 47.2492 46.3164 45.6714C47.006 45.381 47.8993 45.7401 48.1918 46.4247C48.4843 47.1093 48.1225 47.9962 47.4325 48.286C43.574 49.8985 40.9627 50.7898 38.2807 50.7898C35.7686 50.7898 33.3316 49.9351 30.0442 48.5076C26.9058 49.9381 24.5256 50.7898 22.0085 50.7898C19.321 50.7898 16.6448 49.8965 12.5886 48.286C11.9802 48.0669 11.5722 47.3967 11.6599 46.76C12.1422 45.3741 12.8561 45.3741 13.6599 45.6491L13.6604 45.6492Z" fill="#00B050"/>
</svg>
