<svg width="70" height="38" viewBox="0 0 70 38" fill="none" xmlns="http://www.w3.org/2000/svg">
<path d="M21.6911 32.4739C21.6911 29.8105 19.54 27.6577 16.8749 27.6577C14.5339 27.6577 12.591 29.3293 12.1603 31.5515C11.7295 29.3304 9.78401 27.6577 7.43578 27.6577C4.7806 27.6577 2.62891 29.8116 2.62891 32.4739C2.62891 35.1302 4.78005 37.2867 7.43578 37.2867C9.78387 37.2867 11.7289 35.6119 12.1603 33.3972C12.5911 35.6124 14.5339 37.2867 16.8749 37.2867C19.54 37.2867 21.6911 35.1296 21.6911 32.4739ZM7.43536 34.7813C6.1669 34.7813 5.13227 33.7494 5.13227 32.4739C5.13227 31.1984 6.16744 30.16 7.43536 30.16C8.71251 30.16 9.74929 31.1984 9.74929 32.4739C9.74929 33.7494 8.71249 34.7813 7.43536 34.7813ZM16.874 34.7813C15.6044 34.7813 14.5703 33.7494 14.5703 32.4739C14.5703 31.1984 15.605 30.16 16.874 30.16C18.1495 30.16 19.1873 31.1984 19.1873 32.4739C19.1868 33.7494 18.1494 34.7813 16.874 34.7813Z" fill="#FF0000"/>
<path d="M49.6486 31.9527C49.6486 32.8598 48.9129 33.5955 48.0058 33.5955H25.2249C24.3172 33.5955 23.5815 32.8598 23.5815 31.9527V29.375H49.6486V31.9527Z" fill="#FF0000"/>
<path d="M59.3336 30.1668C60.6069 30.1668 61.6443 31.2031 61.6443 32.4813C61.6443 33.7563 60.607 34.7887 59.3336 34.7887C58.0619 34.7887 57.0288 33.7557 57.0288 32.4813C57.0288 31.2025 58.0618 30.1668 59.3336 30.1668ZM59.3336 27.6646C56.6751 27.6646 54.5239 29.8151 54.5239 32.4807C54.5239 35.1359 56.6751 37.2936 59.3336 37.2936C61.9986 37.2936 64.1518 35.137 64.1518 32.4807C64.1518 29.8142 61.9985 27.6646 59.3336 27.6646Z" fill="#FF0000"/>
<path d="M69.9947 27.6556C69.9947 26.5884 68.265 19.0242 68.265 19.0242C68.0665 17.8909 56.6042 16.0338 56.6042 16.0338L54.2186 9.14729H55.8044L55.6086 8.61614C55.3411 7.87557 54.7313 7.3135 53.9684 7.1089C53.6722 7.02697 53.434 6.96187 53.434 6.95319C53.434 6.95319 53.0249 5.87299 52.5518 4.83677C52.3739 4.45427 52.101 4.13309 51.7521 3.90034C47.5176 1.06071 39.2047 -0.0401367 38.3887 0.00111393H37.2565C36.8989 0.00111393 36.5929 0.270756 36.5501 0.629372L36.3271 2.45398C36.0525 4.69957 35.9164 4.83082 35.9164 7.09058V24.4283L21.3995 24.4289L20.3877 22.9673C20.1223 22.5848 19.6861 22.3559 19.2212 22.3559L9.1191 22.3564C8.65306 22.3564 8.21686 22.5848 7.95264 22.9679L6.9408 24.4294L0 24.4289V29.8977H1.40405C2.40449 27.5517 4.73146 25.9046 7.43663 25.9046H16.8741C18.6 25.9046 20.1586 26.5877 21.3317 27.6754H51.7863V32.4797H53.6656C53.6656 28.6787 56.0225 26.0207 59.4009 26.0207C62.7874 26.0207 65.1469 28.6787 65.1469 32.4797V32.8839H65.8094V32.9311H66.5613V32.8839H67.0827C68.6941 32.8839 70 31.3191 70 29.9709C70.0005 28.6205 69.9945 28.7231 69.9945 27.6559L69.9947 27.6556ZM43.5707 21.6475C43.5707 21.8195 43.4291 21.9611 43.2582 21.9611C43.0845 21.9611 42.944 21.8189 42.944 21.6475V13.97C42.944 13.7975 43.0856 13.6575 43.2582 13.6575C43.4301 13.6575 43.5707 13.7975 43.5707 13.97V21.6475ZM46.2758 14.6069C45.8038 14.5386 45.4452 14.149 45.4202 13.6705L45.1783 9.18045H52.4543L54.7031 15.8375L46.2758 14.6069ZM68.2178 27.6556H67.0904C66.448 27.6556 65.8252 27.4516 65.3005 27.0832L63.8362 26.0426H67.2835C67.8016 26.0426 68.2177 26.4604 68.2177 26.9731L68.2178 27.6556Z" fill="#FF0000"/>
</svg>
