<svg width="60" height="60" viewBox="0 0 60 60" fill="none" xmlns="http://www.w3.org/2000/svg">
<path d="M56.6799 16.2689C54.579 12.1943 51.5151 8.5962 47.82 5.86361C47.2777 5.46272 46.5133 5.57729 46.1122 6.11941C45.7111 6.66153 45.8259 7.42608 46.368 7.82718C49.7638 10.3384 52.579 13.6444 54.5096 17.3882C56.5324 21.311 57.558 25.5542 57.558 30.0002C57.558 45.1957 45.1955 57.5582 30 57.5582C14.8045 57.5582 2.44199 45.1957 2.44199 30C2.44199 14.8043 14.8045 2.44199 30 2.44199C30.6742 2.44199 31.221 1.89518 31.221 1.22099C31.221 0.546801 30.6742 0 30 0C13.458 0 0 13.458 0 30C0 46.542 13.458 60 30 60C46.542 60 60 46.542 60 30C60 25.2292 58.8521 20.4811 56.6799 16.2689Z" fill="#2BB673"/>
<path d="M22.3237 16.0701C21.9419 16.2872 21.7061 16.6926 21.7061 17.1316V43.9271C21.7061 44.6015 22.2529 45.1481 22.927 45.1481C23.6012 45.1481 24.148 44.6015 24.148 43.9271V19.2795L42.2255 30.0411L28.9321 38.6058C28.3654 38.9711 28.2017 39.7266 28.567 40.2934C28.9325 40.8603 29.6879 41.0239 30.2548 40.6585L45.2049 31.0263C45.5602 30.7973 45.7718 30.4009 45.7643 29.9782C45.7568 29.5556 45.5313 29.1669 45.168 28.9506L23.5516 16.0823C23.1739 15.8579 22.7054 15.853 22.3237 16.0701Z" fill="#2BB673"/>
</svg>
